#tb 0: 71/1000
0,          0,          0,        1,   192000, 0x4269d703
0,          1,          1,        1,   192000, 0xdf8667e7
0,          2,          2,        1,   192000, 0x450026ad
0,          3,          3,        1,   192000, 0x2528ea52
0,          4,          4,        1,   192000, 0x83bcd1ec
0,          5,          5,        1,   192000, 0x88d5ba27
0,          6,          6,        1,   192000, 0x44424577
0,          7,          7,        1,   192000, 0xd93f12a3
0,          8,          8,        1,   192000, 0xcd625f3e
